<?xml version="1.0" encoding="utf-8"?>
<!-- Generator: Adobe Illustrator 27.5.0, SVG Export Plug-In . SVG Version: 6.00 Build 0)  -->
<svg version="1.1" id="Layer_1" xmlns="http://www.w3.org/2000/svg" xmlns:xlink="http://www.w3.org/1999/xlink" x="0px" y="0px"
	 viewBox="0 0 255.2 120.9" style="enable-background:new 0 0 255.2 120.9;" xml:space="preserve">
<style type="text/css">
	.st0{fill:#037B93;}
	
		.st1{clip-path:url(#SVGID_00000102533901328512700520000015393914771303871933_);fill:url(#SVGID_00000032615735797788602670000017388656830738482107_);}
	
		.st2{clip-path:url(#SVGID_00000014628996552367148590000012704828245027928716_);fill:url(#SVGID_00000127722203820806716690000009943683991698953871_);}
</style>
<g>
	<g>
		<path class="st0" d="M207,46.2c6.2,0,12,2.4,16.4,6.8c3.2,3.2,8.5,3.2,11.7,0c3.2-3.2,3.2-8.5,0-11.7c-7.5-7.5-17.4-11.6-28-11.6
			c-11.1,0-21.3,4.6-28.5,12c-0.2,0.2-0.4,0.5-0.7,0.8c-5.8,6.4-10.5,15.2-15,23.8c-4,7.5-8.1,15.2-12.2,19.6
			c-4.4,4.3-10.1,6.7-16.3,6.7c-12.8,0-23.1-10.4-23.1-23.1c0-12.8,10.4-23.1,23.1-23.1c4.6,0,9.1,1.4,13,4
			c3.8,2.6,8.9,1.6,11.5-2.2c2.6-3.8,1.6-8.9-2.2-11.5c-6.6-4.4-14.3-6.8-22.2-6.8c-11.1,0-21.3,4.6-28.5,12
			c-0.2,0.2-0.4,0.5-0.7,0.7c-5.8,6.4-10.5,15.2-15.1,23.8c-3.6,6.9-7.4,13.9-11.1,18.3c5.1,6.3,9.9,7.6,16,5.2
			c0.7-0.3,1.1-0.5,1.1-0.5l2-3.5c6.2,13.7,20.1,23.4,36.2,23.4c10.6,0,20.5-4.1,28-11.6c0,0,0,0,0.1-0.1c0,0,0,0,0.1-0.1
			c3.1-3.2,5.8-7.2,8.4-11.6C177.1,99.4,191,109,207,109c10.6,0,20.6-4.1,28-11.6c3.2-3.2,3.2-8.5,0-11.7c-3.2-3.2-8.5-3.2-11.7,0
			c-4.4,4.4-10.2,6.8-16.4,6.8c-12.7,0-23.1-10.4-23.1-23.1C183.9,56.6,194.3,46.2,207,46.2"/>
		<path class="st0" d="M15.5,60.8c4.4,6.4,9.8,6.4,11.2,0.9c1.1-4.3,4.1-7.1,4.1-7.1C25.3,50.7,17.1,53.5,15.5,60.8"/>
	</g>
	<g>
		<defs>
			<path id="SVGID_1_" d="M61.6,29.8c0,9.1,7.4,16.5,16.5,16.5c9.1,0,16.5-7.4,16.5-16.5c0-9.1-7.4-16.5-16.5-16.5
				C69,13.3,61.6,20.7,61.6,29.8"/>
		</defs>
		<clipPath id="SVGID_00000022524526688532620810000002135537885807625610_">
			<use xlink:href="#SVGID_1_"  style="overflow:visible;"/>
		</clipPath>
		
			<linearGradient id="SVGID_00000030455229426665501970000013233334311870670269_" gradientUnits="userSpaceOnUse" x1="-0.1147" y1="159.3186" x2="0.817" y2="159.3186" gradientTransform="matrix(-39.2745 -68.0254 68.0254 -39.2745 -10753.2002 6298.0215)">
			<stop  offset="0" style="stop-color:#62B337"/>
			<stop  offset="1" style="stop-color:#F8EB02"/>
		</linearGradient>
		
			<polygon style="clip-path:url(#SVGID_00000022524526688532620810000002135537885807625610_);fill:url(#SVGID_00000030455229426665501970000013233334311870670269_);" points="
			108.9,38 86.4,-1 47.3,21.5 69.9,60.6 		"/>
	</g>
	<g>
		<defs>
			<path id="SVGID_00000183954671158124291870000015716349991323232903_" d="M21,32.9c-8.7,5.6-12,18.6-5.4,27.9
				c1.9-8.6,13-10.9,18-3.5c6.1,9.1,21.2,36.2,28.8,45c4.9,5.7,11.9,8.8,18.7,5.1c5.5-3,11.2-11.5,15-18.3c0,0-0.4,0.3-1.1,0.5
				c-7.3,2.9-12.7,0.5-19-9.5c-8.3-11.6-21.4-35.5-28.7-43.3c-4.8-5.1-10.3-7.3-15.5-7.3C28,29.6,24.2,30.8,21,32.9"/>
		</defs>
		<clipPath id="SVGID_00000071542762831512032230000010726266591947557298_">
			<use xlink:href="#SVGID_00000183954671158124291870000015716349991323232903_"  style="overflow:visible;"/>
		</clipPath>
		
			<linearGradient id="SVGID_00000175297408107570083550000006852361096504513678_" gradientUnits="userSpaceOnUse" x1="-9.372680e-03" y1="159.3932" x2="0.9219" y2="159.3932" gradientTransform="matrix(-86.301 -149.4779 149.4779 -86.301 -23744.916 13857.2354)">
			<stop  offset="0" style="stop-color:#62B337"/>
			<stop  offset="1" style="stop-color:#F8EB02"/>
		</linearGradient>
		
			<polygon style="clip-path:url(#SVGID_00000071542762831512032230000010726266591947557298_);fill:url(#SVGID_00000175297408107570083550000006852361096504513678_);" points="
			137.3,83.1 80.3,-15.7 -20.3,42.4 36.7,141.2 		"/>
	</g>
</g>
</svg>
