<?xml version="1.0" encoding="utf-8"?>
<!-- Generator: Adobe Illustrator 19.2.1, SVG Export Plug-In . SVG Version: 6.00 Build 0)  -->
<svg version="1.1" id="layer" xmlns="http://www.w3.org/2000/svg" xmlns:xlink="http://www.w3.org/1999/xlink" x="0px" y="0px"
	 viewBox="0 0 652 652" style="enable-background:new 0 0 652 652;" xml:space="preserve">
<style type="text/css">
	.st0{fill:#004077;}
	.st1{fill:#969797;}
	.st2{fill:#898989;}
</style>
<g>
	<path class="st0" d="M118.2,191.2H65.6l57.1,146.9c11.6-8.4,24.9-16.6,39.5-24.3L118.2,191.2"/>
	<path class="st1" d="M165.7,323.7c-14.6,5.7-28.5,11.9-41.5,18.4l16.6,42.7h50.6l32.8-80.3c-19,5.2-37.1,11.2-54.3,17.7"/>
	<path class="st0" d="M270.4,191.2h-50.6l-44.2,115.9c17.3-8.2,36.2-15.8,56.6-22.3L270.4,191.2"/>
	<path class="st1" d="M280.5,361.6c16.5,17.6,37.5,23.1,66.8,23.1h63.8l-2.9-41.5h-47c-15.8,0-27.7,0-37.1-6.3
		c-14.5-9.5-20.9-25-20.9-48.1c0-0.3,0-0.5,0-0.8c-16.7,2.3-32.9,5.3-48.7,8.8C256.2,322.7,265.8,345.9,280.5,361.6"/>
	<path class="st0" d="M361.2,233.1h47l2.9-41.9h-63.8c-29.4,0-50.3,5.9-66.8,23.1c-14.6,15.2-23.9,37.9-25.9,63.9
		c16.1-4.3,32.9-8,50.4-10.9C310.5,240.4,328.4,233.1,361.2,233.1"/>
	<path class="st1" d="M479.7,337c-14.5-9.5-20.9-25-20.9-48.1c0-1.1,0.1-2,0.1-3.1c-15.9-1.8-32.2-3.1-48.7-3.6
		c-0.1,2.2-0.3,4.4-0.3,6.7c0,29,10.1,55.4,26.3,72.7c16.5,17.6,37.4,23.1,66.8,23.1h63.8l-2.9-41.5h-47
		C501,343.2,489.2,343.2,479.7,337"/>
	<path class="st0" d="M516.8,233.1h47l2.9-41.9H503c-29.4,0-50.3,5.9-66.8,23.1C425,226,417,242.2,412.9,260.8
		c16.5,0.8,32.6,2.3,48.3,4.5C467.2,240.1,485,233.1,516.8,233.1"/>
	<path class="st1" d="M584.8,378.6c0,3.5-2.8,6.3-6.3,6.3c-3.5,0-6.3-2.8-6.3-6.3c0-3.5,2.8-6.3,6.3-6.3
		C581.9,372.3,584.8,375.2,584.8,378.6 M583.7,378.6c0-3-2.3-5.5-5.3-5.5c-3,0-5.3,2.4-5.3,5.5c0,3.1,2.3,5.5,5.3,5.5
		C581.5,384.1,583.7,381.7,583.7,378.6 M577.1,382.4h-1v-7.5h2.9c1.7,0,2.4,0.7,2.4,2.1c0,1.3-0.9,1.9-1.8,2.1l2.1,3.4h-1.2l-2-3.4
		h-1.4V382.4z M578.3,378.2c1,0,2.1,0.1,2.1-1.3c0-1-0.8-1.2-1.6-1.2h-1.6v2.5H578.3z"/>
	<path class="st2" d="M59,423.6c-0.2,1.3-0.6,5.7-1,8.7l-1.9,0.2c-0.1-2.2-0.3-4.1-1-5.1c-0.7-1.1-1.6-1.6-5.1-1.6h-3.4
		c-2,0-2.2,0.2-2.6,2.3l-2.2,11.6h4.4c4.7,0,5-0.3,6.5-4.1h1.9l-2.2,11.2h-1.9c0.1-4.2,0.1-4.6-4.7-4.6h-4.4l-1.9,9.7
		c-0.5,2.8-0.5,4.2,0.2,4.9c0.7,0.8,2.3,1.1,5.1,1.1c3.7,0,5.5-0.5,6.9-1.9c1.2-1.2,2.6-3.1,3.9-5.4l1.8,0.7
		c-0.6,1.9-2.6,6.9-3.4,8.8h-27l0.3-1.7c4.4-0.4,4.8-0.7,5.7-5.3l4.4-22.5c0.8-4.4,0.5-4.8-4-5.2l0.5-1.7H59"/>
	<path class="st2" d="M62.8,441.2c2.8-4,5.6-6.5,7.6-6.5c1.8,0,2.5,2,3.8,5.7l1,2.8c4.4-6.4,6.6-8.5,9.1-8.5c1.7,0,2.6,1.3,2.6,2.8
		c0,1.7-1.6,3-2.6,3c-0.4,0-0.7-0.2-1-0.6c-0.3-0.4-0.7-0.7-1.3-0.7c-0.7,0-1.5,0.6-2.7,1.9c-1,1.1-2.1,2.4-3.3,4.2l2.1,6.6
		c0.8,2.8,1.6,4.1,2.3,4.1c0.8,0,2-1,3.9-3.3l1.1,1.3c-3,4.8-6,6.7-8,6.7c-1.7,0-3-1.6-4.1-5.3l-1.5-4.7c-4.6,7.4-6.8,10.1-9.7,10.1
		c-1.6,0-2.9-1.2-2.8-3c0-1.8,1.5-3.1,2.6-3.1c0.4,0,0.7,0.2,1,0.6c0.3,0.4,0.8,0.6,1.3,0.6c1.3,0,3.8-2.7,6.8-7.4l-1.6-5.3
		c-1-3.1-1.5-3.6-2-3.6c-0.6,0-1.6,0.7-3.4,3L62.8,441.2"/>
	<path class="st2" d="M107.2,454.4c-3.7,4.2-8.1,6.4-11.6,6.4c-4.2,0-6.6-2.9-6.6-8.4c0-4.7,2.1-10.1,6-13.5
		c2.4-2.1,6.4-4.2,9.4-4.2c2.6,0,4.8,1.3,4.8,3.1c0.1,1-0.6,2.3-2.2,3.1c-0.6,0.4-1.1,0.3-1.5-0.3c-1.5-2.1-2.9-3.1-4.4-3.1
		c-1.4,0-2.5,1.1-3.5,3c-1.3,2.4-2.3,6.3-2.3,10.4c0,4,1.4,5.8,3.7,5.8c2.6,0,5.8-2.5,7.2-3.8L107.2,454.4"/>
	<path class="st2" d="M130.1,454c-5,5.3-9.3,6.8-12.8,6.8c-3,0-6.6-1.7-6.6-8.4c0-5.2,2.4-11,6.6-14.3c2.3-1.8,5.9-3.4,8.7-3.4
		c3.6,0,5.5,2.2,5.5,4.7c0,5.7-9.1,8.6-14.6,10c-0.1,0.7-0.1,1.2-0.1,1.6c0,2.9,1,5.7,4.1,5.7c2.3,0,5.4-1.6,8.1-4.2L130.1,454
		 M121.7,437.8c-1.3,0.8-3.8,3.8-4.6,9.7c6.7-2,8.9-4.4,8.9-7.2c0-2.1-1.3-3-2.4-3C123.1,437.2,122.3,437.4,121.7,437.8"/>
	<path class="st2" d="M144.9,454.9c-3.4,3.8-7.5,5.9-9.4,5.9c-1.4,0-2.4-1.2-1.2-7.1c1.8-8.8,3.6-17.5,5.4-26.2
		c0.6-2.8,0.3-3.2-2.1-3.3l-1.6-0.1l0.3-1.6c5.1-0.5,8.7-2,9.6-2c0.7,0,0.7,0.6,0.4,2c-2.1,10.5-4.3,20.9-6.5,31.5
		c-0.3,1.6-0.2,2.1,0.2,2.1c0.5,0,2.5-1.2,3.9-2.6L144.9,454.9"/>
	<path class="st2" d="M159.7,454.9c-3.4,3.8-7.5,5.9-9.4,5.9c-1.4,0-2.4-1.2-1.2-7.1c1.8-8.8,3.6-17.5,5.4-26.2
		c0.6-2.8,0.3-3.2-2.1-3.3l-1.6-0.1l0.3-1.6c5.1-0.5,8.7-2,9.6-2c0.7,0,0.7,0.6,0.4,2c-2.1,10.5-4.3,20.9-6.5,31.5
		c-0.3,1.6-0.2,2.1,0.2,2.1c0.5,0,2.5-1.2,3.9-2.6L159.7,454.9"/>
	<path class="st2" d="M182.3,454c-5,5.3-9.3,6.8-12.8,6.8c-3,0-6.6-1.7-6.6-8.4c0-5.2,2.4-11,6.6-14.3c2.3-1.8,5.9-3.4,8.7-3.4
		c3.6,0,5.5,2.2,5.5,4.7c0,5.7-9.1,8.6-14.6,10c0,0.7,0,1.2,0,1.6c0,2.9,1,5.7,4.1,5.7c2.3,0,5.4-1.6,8.1-4.2L182.3,454 M174,437.8
		c-1.3,0.8-3.8,3.8-4.6,9.7c6.7-2,8.9-4.4,8.9-7.2c0-2.1-1.3-3-2.4-3C175.3,437.2,174.5,437.4,174,437.8"/>
	<path class="st2" d="M213.1,455c-3.9,4.1-7.3,5.8-9.1,5.8c-1.5,0-2.5-1.3-1.4-6c1-4,1.9-8,2.8-12c0.7-3,0.4-3.7-0.3-3.7
		c-2.1,0-7.7,6.2-10,10.2c-0.8,2.9-1.6,6.7-2.3,10.2c-1.9,0.2-4.1,0.7-5.6,1.2l-0.4-0.5c1.4-5.9,2.9-12.2,4.3-18.6
		c0.4-1.7,0.3-2.2-0.1-2.2c-0.5,0-2.4,1.1-3.6,2.4l-0.8-1.6c3.6-3.7,7.1-5.6,9-5.6c1.5,0,2,1.7,0.9,6.8l-0.8,3.5h0.1
		c3.1-4.2,6.5-7.1,8.9-8.8c1.6-1,3.1-1.6,4.3-1.6c1.7,0,3.4,1,1.7,8.4c-0.8,3.5-1.6,7.1-2.5,10.7c-0.3,1.4-0.3,2,0.2,2
		c0.5,0,2.1-1.1,3.5-2.4L213.1,455"/>
	<path class="st2" d="M234.9,454.4c-3.7,4.2-8.1,6.4-11.6,6.4c-4.2,0-6.6-2.9-6.6-8.4c0-4.7,2.1-10.1,6-13.5
		c2.4-2.1,6.4-4.2,9.4-4.2c2.6,0,4.8,1.3,4.8,3.1c0.1,1-0.6,2.3-2.2,3.1c-0.6,0.4-1.1,0.3-1.5-0.3c-1.5-2.1-2.9-3.1-4.4-3.1
		c-1.4,0-2.5,1.1-3.5,3c-1.3,2.4-2.2,6.3-2.2,10.4c0,4,1.4,5.8,3.7,5.8c2.6,0,5.8-2.5,7.2-3.8L234.9,454.4"/>
	<path class="st2" d="M257.9,454c-5,5.3-9.3,6.8-12.8,6.8c-3,0-6.6-1.7-6.6-8.4c0-5.2,2.4-11,6.6-14.3c2.3-1.8,5.9-3.4,8.7-3.4
		c3.6,0,5.5,2.2,5.5,4.7c0,5.7-9.1,8.6-14.6,10c-0.1,0.7-0.1,1.2-0.1,1.6c0,2.9,1,5.7,4.1,5.7c2.3,0,5.4-1.6,8.1-4.2L257.9,454
		 M249.5,437.8c-1.3,0.8-3.8,3.8-4.6,9.7c6.7-2,8.9-4.4,8.9-7.2c0-2.1-1.3-3-2.4-3C250.8,437.2,250,437.4,249.5,437.8"/>
	<path class="st2" d="M286.6,454.8c-3.2,3.6-7.5,6-9.3,6c-1.5,0-2.5-1.1-1.3-5.9l3.2-13.3c0.3-1.3,0.3-1.9-0.1-1.9
		c-0.4,0-2.1,1-3.5,2.1l-0.7-1.5c3.7-3.5,7.8-5.7,9.6-5.7c1.5,0,1.7,2,0.9,5.2l-3.4,13.9c-0.3,1.5-0.2,2.1,0.2,2.1
		c0.6,0,2.1-1.1,3.7-2.4L286.6,454.8 M287.6,426.7c0,2.1-1.6,3.9-3.8,3.9c-1.7,0-2.8-1.2-2.8-3.1c-0.1-1.6,1.3-3.9,3.8-3.9
		C286.6,423.7,287.6,425.1,287.6,426.7"/>
	<path class="st2" d="M316.6,455c-3.9,4.1-7.3,5.8-9,5.8c-1.5,0-2.5-1.3-1.4-6c1-4,1.9-8,2.8-12c0.7-3,0.5-3.7-0.3-3.7
		c-2.1,0-7.7,6.2-10,10.2c-0.8,2.9-1.6,6.7-2.3,10.2c-1.9,0.2-4.1,0.7-5.6,1.2l-0.4-0.5c1.4-5.9,2.9-12.2,4.3-18.6
		c0.4-1.7,0.3-2.2,0-2.2c-0.5,0-2.4,1.1-3.6,2.4l-0.8-1.6c3.6-3.7,7.1-5.6,9-5.6c1.5,0,2,1.7,0.9,6.8l-0.9,3.5h0.1
		c3.1-4.2,6.5-7.1,8.9-8.8c1.6-1,3.1-1.6,4.3-1.6c1.7,0,3.4,1,1.7,8.4c-0.8,3.5-1.6,7.1-2.5,10.7c-0.3,1.4-0.3,2,0.2,2
		c0.5,0,2.1-1.1,3.5-2.4L316.6,455"/>
	<path class="st2" d="M365.5,450.5c-1.1,2.7-3.2,7-4.6,9c-1.7,0.5-5.6,1.4-9.8,1.4c-9.7,0-16.9-5.6-16.9-16.1
		c0-13.6,10.9-22.2,24-22.2c4.9,0,8.3,1.2,9.7,1.7c-0.1,2.9-0.3,6.1-0.6,9.2l-1.8,0.2c-0.8-6.8-3.7-8.8-8.6-8.8
		c-8.6,0-15.4,9-15.4,19.7c0,8.4,3.8,14.1,10.1,14.1c4.8,0,8.2-3.3,12-9L365.5,450.5"/>
	<path class="st2" d="M369.6,451.7c0-7.4,4-12.8,8.4-15.1c2.3-1.2,4.7-2,6.9-2c5.2,0,8,3.4,8,8.9c0,4.9-2,10.2-6,13.6
		c-2.4,2.1-5.9,3.6-9.3,3.6C371.4,460.8,369.6,456.1,369.6,451.7 M381.4,458.1c2.5-1,5.2-7,5.2-14.7c0-4.4-1.6-6.4-3.8-6.4
		c-0.5,0-1.1,0.1-1.6,0.3c-1.7,0.8-5.3,5.5-5.3,14.5c0,4.3,1.7,6.5,3.9,6.5C380.5,458.4,380.9,458.2,381.4,458.1"/>
	<path class="st2" d="M423.1,455c-3.9,4.1-7.3,5.8-9,5.8c-1.5,0-2.5-1.3-1.4-6c0.9-4,1.9-8,2.8-12c0.7-3,0.4-3.7-0.3-3.7
		c-2.1,0-7.7,6.2-10,10.2c-0.8,2.9-1.6,6.7-2.3,10.2c-1.9,0.2-4.1,0.7-5.6,1.2l-0.4-0.5c1.4-5.9,2.9-12.2,4.3-18.6
		c0.4-1.7,0.3-2.2,0-2.2c-0.5,0-2.4,1.1-3.6,2.4l-0.8-1.6c3.6-3.7,7.1-5.6,9-5.6c1.5,0,2,1.7,0.9,6.8l-0.8,3.5h0.1
		c3.1-4.2,6.5-7.1,8.9-8.8c1.6-1,3.1-1.6,4.3-1.6c1.7,0,3.4,1,1.7,8.4c-0.8,3.5-1.6,7.1-2.5,10.7c-0.3,1.4-0.3,2,0.2,2
		c0.5,0,2.1-1.1,3.5-2.4L423.1,455"/>
	<path class="st2" d="M425.5,456.4c-0.1-1.1,0.8-2.3,1.8-2.9c0.8-0.5,1.3-0.4,1.7,0.1c1.9,2.4,4.2,3.9,6.1,3.9c1.7,0,3-1.1,3-2.5
		c0-1.2-0.7-2.3-3.5-4.4c-2.5-1.9-5.4-3.9-5.4-7.2c0-1.9,0.7-3.9,3.3-6c2-1.6,4.6-2.8,6.7-2.8c2.8,0,4.9,1.7,4.9,3.5
		c0,1.1-0.7,2.1-1.7,2.8c-0.7,0.5-1.1,0.3-1.5-0.2c-1.2-1.5-2.7-3-4.8-3c-1.5,0-2.5,1-2.5,2.4c0.1,1.7,1.7,3.2,3.9,4.6
		c3.3,2.3,5.2,4.2,5.2,7c0,4.8-6.2,8.9-10.9,8.9C428.7,460.8,425.5,458.8,425.5,456.4"/>
	<path class="st2" d="M462.6,437.8l-5.3,0.3l-3,14.7c-0.6,2.6-0.3,3.3,0.3,3.3c0.8,0,3.4-1.7,4.8-3l0.8,1.3c-2,2.7-6.8,6.4-9.9,6.4
		c-1.8,0-3-1.9-1.7-7.8l3.2-14.9h-4.1l-0.2-0.6l1.5-2h3.4l1.2-5.2l5.7-3.9l0.6,0.5l-2,8.7h6.3L462.6,437.8"/>
	<path class="st2" d="M464.4,440.4c3.1-3.3,6.8-5.7,8.7-5.7c1.6,0,2,2.1,1,6.5l-0.5,2.6h0.2c2.7-5.2,5.7-9.1,8.2-9.1
		c1,0,2,0.6,2.6,1.5c0.6,0.9,0.5,2-0.2,3.1c-0.6,1-1.2,1.6-1.8,2.1c-0.5,0.4-1,0.4-1.4,0.1c-0.7-0.7-1.5-1-2.1-1
		c-0.6,0-1.3,0.3-2.5,2c-1.3,1.9-2.9,4.6-3.5,6.5c-0.7,3.3-1.6,7.5-2.1,10.9c-1.8,0.2-4,0.6-5.6,1.1l-0.4-0.5
		c1.4-5.9,2.8-12.1,3.9-18.1c0.3-1.9,0.3-2.6-0.1-2.6c-0.5,0-2.4,1.1-3.7,2.3L464.4,440.4"/>
	<path class="st2" d="M513.2,454.7c-3.7,4.1-7.3,6.1-9.2,6.1c-1.6,0-2.3-1.7-1.3-5.9c0.3-1.4,0.6-2.6,0.8-4h-0.1
		c-3.3,4.4-6.6,7.2-8.7,8.5c-1.3,0.9-2.9,1.4-4.2,1.4c-1.6,0-3.7-1.1-2.1-7.8c0.9-3.7,1.8-7.4,2.6-11.2c0.4-1.6,0.4-2.3-0.1-2.3
		c-0.4,0-2,1.2-3.6,2.5l-0.7-1.6c3.5-3.4,7.3-5.6,9.2-5.6c1.5,0,1.9,1.3,1,5.4c-0.9,4.1-1.9,8.3-2.8,12.4c-0.6,2.6-0.3,3.6,0.5,3.6
		c2.8,0,8-6.8,9.6-9.6c0.8-3.3,1.6-6.8,2.3-10.3l5.4-1.5h0.7c-1.5,5.8-2.9,11.9-4.2,18.7c-0.3,1.9-0.3,2.4,0.1,2.4
		c0.5,0,2.4-1.2,3.8-2.6L513.2,454.7"/>
	<path class="st2" d="M534.9,454.4c-3.7,4.2-8.1,6.4-11.6,6.4c-4.2,0-6.6-2.9-6.6-8.4c0-4.7,2.1-10.1,6-13.5
		c2.4-2.1,6.4-4.2,9.4-4.2c2.6,0,4.8,1.3,4.8,3.1c0.1,1-0.6,2.3-2.2,3.1c-0.6,0.4-1.1,0.3-1.5-0.3c-1.5-2.1-2.9-3.1-4.4-3.1
		c-1.4,0-2.5,1.1-3.5,3c-1.3,2.4-2.2,6.3-2.2,10.4c0,4,1.4,5.8,3.7,5.8c2.6,0,5.9-2.5,7.2-3.8L534.9,454.4"/>
	<path class="st2" d="M555.4,437.8l-5.3,0.3l-3,14.7c-0.6,2.6-0.3,3.3,0.3,3.3c0.8,0,3.4-1.7,4.8-3l0.8,1.3c-2,2.7-6.8,6.4-9.9,6.4
		c-1.8,0-3-1.9-1.7-7.8l3.2-14.9h-4.1l-0.2-0.6l1.5-2h3.4l1.2-5.2l5.7-3.9l0.6,0.5l-2,8.7h6.3L555.4,437.8"/>
	<path class="st2" d="M569.4,454.8c-3.2,3.6-7.5,6-9.3,6c-1.5,0-2.5-1.1-1.3-5.9l3.1-13.3c0.3-1.3,0.3-1.9-0.1-1.9
		c-0.5,0-2.1,1-3.5,2.1l-0.7-1.5c3.7-3.5,7.8-5.7,9.6-5.7c1.5,0,1.7,2,0.9,5.2l-3.4,13.9c-0.3,1.5-0.2,2.1,0.2,2.1
		c0.6,0,2.1-1.1,3.7-2.4L569.4,454.8 M570.5,426.7c0,2.1-1.6,3.9-3.8,3.9c-1.7,0-2.8-1.2-2.8-3.1c-0.1-1.6,1.3-3.9,3.8-3.9
		C569.5,423.7,570.5,425.1,570.5,426.7"/>
	<path class="st2" d="M573.3,451.7c0-7.4,4-12.8,8.4-15.1c2.3-1.2,4.7-2,6.9-2c5.2,0,8,3.4,8,8.9c0,4.9-2,10.2-6,13.6
		c-2.4,2.1-5.9,3.6-9.3,3.6C575.2,460.8,573.3,456.1,573.3,451.7 M585.1,458.1c2.5-1,5.2-7,5.2-14.7c-0.1-4.4-1.6-6.4-3.8-6.4
		c-0.5,0-1.1,0.1-1.6,0.3c-1.7,0.8-5.3,5.5-5.3,14.5c0,4.3,1.7,6.5,3.9,6.5C584.2,458.4,584.6,458.2,585.1,458.1"/>
	<path class="st2" d="M626.8,455c-3.9,4.1-7.3,5.8-9.1,5.8c-1.5,0-2.5-1.3-1.4-6c1-4,1.9-8,2.8-12c0.7-3,0.4-3.7-0.3-3.7
		c-2.1,0-7.7,6.2-10,10.2c-0.8,2.9-1.6,6.7-2.3,10.2c-1.9,0.2-4.1,0.7-5.6,1.2l-0.4-0.5c1.4-5.9,2.9-12.2,4.3-18.6
		c0.4-1.7,0.4-2.2,0-2.2c-0.5,0-2.4,1.1-3.6,2.4l-0.8-1.6c3.6-3.7,7.1-5.6,9-5.6c1.5,0,2,1.7,0.9,6.8l-0.9,3.5h0.1
		c3.1-4.2,6.5-7.1,8.9-8.8c1.6-1,3.1-1.6,4.3-1.6c1.7,0,3.4,1,1.7,8.4c-0.8,3.5-1.6,7.1-2.5,10.7c-0.3,1.4-0.3,2,0.2,2
		c0.4,0,2.1-1.1,3.5-2.4L626.8,455"/>
</g>
</svg>
